<?xml version="1.0" encoding="UTF-8"?>
<svg width="94px" height="94px" viewBox="0 0 94 94" version="1.1" xmlns="http://www.w3.org/2000/svg" xmlns:xlink="http://www.w3.org/1999/xlink">
    <!-- Generator: Sketch 47 (45396) - http://www.bohemiancoding.com/sketch -->
    <title>Symbol</title>
    <desc>Created with Sketch.</desc>
    <defs></defs>
    <g id="App-Icons-by-aarhcreative---Enjoy!" stroke="none" stroke-width="1" fill="none" fill-rule="evenodd">
        <g id="App-Icons-Free" transform="translate(-41.000000, -34.000000)" fill="#FFFFFF">
            <g id="Icons" transform="translate(19.000000, 12.000000)">
                <g id="Play-Copy">
                    <g id="Symbol" transform="translate(22.000000, 22.000000)">
                        <path d="M5.80356694,37.1322947 C2.14083499,39.1679316 -0.0972672079,42.8267703 0.00324936955,46.9963877 C0.00125235805,50.0462164 1.11528621,52.7895182 3.25039385,54.9246258 C3.96076212,55.6349941 4.87762413,56.3452272 5.79063365,56.8529136 L23.7771496,66.7012278 C25.2022894,67.5144155 26.3173894,68.6295155 27.1305771,70.0546553 L36.9788913,88.0411713 C39.0097333,91.7012405 42.6656442,93.934553 46.8353968,93.8285759 C50.901835,93.8259132 54.6638733,91.6910106 56.6994899,88.0282583 L66.4721098,69.929572 C67.2871646,68.503366 68.4037258,67.3868047 69.8299318,66.57175 L87.8293604,56.6998723 C91.4920923,54.6642355 93.7301945,51.0053967 93.629678,46.8357793 C93.6323407,42.7693411 91.5023629,39.0100954 87.8422733,36.9792738 L69.8557574,27.1309596 C68.4306176,26.3177718 67.3155176,25.2026719 66.5023299,23.7775321 L56.6540157,5.79101612 C54.6231737,2.13094689 50.9672628,-0.102365653 46.7975102,0.0036114995 C42.731072,0.00627418149 38.9690337,2.1411768 36.9334171,5.80392907 L27.0615395,23.8033577 C26.2464847,25.2295636 25.1299234,26.3461249 23.7037175,27.1611797 L5.80356694,37.1322947 Z" id="Page-1-Copy" opacity="0.185971467"></path>
                        <path d="M10.8899129,69.0822996 L16.4965877,49.3743387 C16.9287369,47.789528 16.9287369,46.210472 16.4965877,44.6256613 L10.7495413,24.9176716 C9.59898264,20.8883164 10.7495413,16.7185495 13.6230645,13.8412607 C16.4965877,10.8178631 20.6608975,9.8119342 24.6849794,10.9639719 L44.3671766,16.7185495 C45.9499132,17.1512649 47.5269027,17.1512649 49.1096393,16.7185495 L68.7918365,10.9639719 C72.8159183,9.81190543 76.9802282,10.9639719 79.8537514,13.8412607 C82.8731921,16.7185495 83.8778045,20.8883164 82.7272746,24.9176716 L76.9802282,44.6256613 C76.548079,46.210472 76.548079,47.789528 76.9802282,49.3743387 L82.8676462,69.0823284 C84.0182049,73.1116836 82.8676462,77.2814505 79.994123,80.1587393 C77.1205998,83.1821369 72.95629,84.1880658 68.9322081,83.0360281 L49.2500109,77.2814505 C47.6672743,76.8487351 46.0902848,76.8487351 44.5075482,77.2814505 L24.825351,83.0360281 C23.8207673,83.3226349 22.6702374,83.4687436 21.6656249,83.4687436 C18.6461268,83.4687436 15.9185785,82.3166772 13.7634361,80.1587106 C10.7439954,77.2814218 9.73938298,73.1116548 10.8899129,69.0822996 Z M52.4,55.56 L55.088,63 L62,63 L49.904,29.16 L45.056,29.16 L32.96,63 L39.536,63 L42.08,55.56 L52.4,55.56 Z M43.76,50.28 L47.36,38 L50.96,50.28 L43.76,50.28 Z" id="Combined-Shape" opacity="0.92811334"></path>
                    </g>
                </g>
            </g>
        </g>
    </g>
</svg>